<svg version="1.0" xmlns="http://www.w3.org/2000/svg"
 viewBox="0 0 200.000000 200.000000">
<g transform="translate(0.000000,200.000000) scale(0.050000,-0.050000)"
 stroke="none">
<path d="M814 2531 c-217 -77 -250 -254 -84 -449 137 -160 138 -295 5 -351
-173 -73 -296 109 -164 242 61 60 59 134 -3 143 -81 12 -188 -138 -188 -263 0
-276 339 -376 525 -155 109 129 92 269 -57 451 -130 160 -104 271 64 271 94 0
109 -74 23 -106 -104 -38 -39 -147 65 -111 156 54 161 265 9 329 -82 34 -98
34 -195 -1z"/>
<path d="M1227 2220 c-70 -28 -147 -145 -147 -224 0 -161 187 -235 318 -125
192 162 55 440 -171 349z m122 -131 c39 -39 39 -49 0 -105 -50 -71 -149 -46
-149 39 0 70 100 114 149 66z"/>
<path d="M1639 2195 c-178 -120 -137 -375 59 -375 198 0 314 265 167 380 -66
52 -143 51 -226 -5z m150 -106 c52 -53 8 -149 -68 -149 -80 0 -103 78 -41 140
48 48 67 50 109 9z"/>
<path d="M2092 2195 c-53 -83 -136 -315 -124 -346 24 -64 83 -17 152 121 54
107 81 142 118 147 53 7 53 3 -10 -162 -56 -145 41 -197 102 -55 66 156 103
210 145 216 57 8 59 -31 5 -136 -65 -127 -22 -172 140 -144 108 18 133 89 35
100 -61 7 -67 31 -25 104 79 138 -39 257 -167 168 -42 -29 -48 -29 -81 0 -41
37 -88 41 -145 10 -30 -16 -47 -16 -63 0 -32 32 -50 27 -82 -23z"/>
<path d="M2859 2186 c-164 -138 -131 -391 43 -335 31 9 40 6 34 -14 -6 -16
-42 -28 -88 -30 -43 -1 -99 -3 -125 -5 -118 -6 -202 -178 -133 -276 90 -129
282 -89 370 78 45 86 57 95 130 100 98 7 125 103 30 109 -83 5 -86 6 -66 32
39 50 149 353 137 374 -17 27 -85 27 -101 1 -8 -13 -25 -13 -50 0 -61 33 -113
23 -181 -34z m157 -63 c45 -28 -29 -187 -84 -179 -59 8 -67 101 -13 155 45 45
58 48 97 24z m-153 -458 c-54 -100 -147 -129 -176 -55 -19 50 32 90 116 90 69
0 76 -4 60 -35z"/>
<path d="M3298 2162 c-182 -181 -23 -429 200 -313 190 98 150 391 -53 391 -54
0 -87 -17 -147 -78z m178 -66 c61 -61 7 -165 -80 -153 -59 9 -72 86 -25 139
40 44 71 48 105 14z"/>
</g>
</svg>
